<svg width="155" height="32" viewBox="0 0 155 32" fill="none" xmlns="http://www.w3.org/2000/svg">
<g clip-path="url(#clip0_19_28)">
<path d="M0 0H6.21714L15.1771 12.9829H15.36V0H22.8571V25.4171H16.64L7.49714 12.2514V25.4171H0V0Z" fill="#F23030"/>
<path d="M25.4171 15.7257C25.4171 9.32572 29.44 5.66858 35.6571 5.66858C41.8743 5.66858 45.8971 9.32572 45.8971 15.7257C45.8971 22.1257 42.0571 25.7829 35.6571 25.7829C29.2571 25.7829 25.4171 22.1257 25.4171 15.7257ZM38.4 15.7257C38.4 12.6172 37.3028 10.9714 35.6571 10.9714C33.8285 10.9714 32.7314 12.8 32.7314 15.7257C32.7314 18.8343 33.8285 20.48 35.6571 20.48C37.3028 20.48 38.4 18.8343 38.4 15.7257Z" fill="#F23030"/>
<path d="M49.7371 19.5657V11.1543H47.1771V6.03426H49.7371V1.64569H56.8686V5.85141H60.3428V10.9714H56.8686V18.2857C56.8686 19.9314 57.6 20.48 59.0628 20.48C59.6114 20.48 59.9771 20.48 60.3428 20.48V25.6C59.6114 25.7828 58.5143 25.7828 57.0514 25.7828C51.9314 25.7828 49.7371 24.1371 49.7371 19.5657Z" fill="#F23030"/>
<path d="M62.1714 15.7257C62.1714 9.32572 66.0114 5.48572 72.2286 5.48572C78.2629 5.48572 82.1029 9.32572 82.1029 15.1771V17.1886H69.3029C69.3029 19.3829 70.5829 20.6629 72.5943 20.6629C74.4229 20.6629 75.3372 19.5657 75.7029 19.0171H82.1029V19.2C81.5543 21.76 79.36 25.6 72.5943 25.6C66.0114 25.7829 62.1714 21.9429 62.1714 15.7257ZM69.3029 13.1657H75.3372C74.9714 11.52 73.8743 10.4229 72.4114 10.4229C70.7657 10.4229 69.6686 11.52 69.3029 13.1657Z" fill="#F23030"/>
<path d="M91.2457 0H100.571L108.8 25.4171H100.937L99.6571 20.2971H91.9771L90.6971 25.4171H82.8343L91.2457 0ZM93.44 14.9943H98.3771L96 6.03429H95.8172L93.44 14.9943Z" fill="#F23030"/>
<path d="M110.629 6.03429H117.76V9.50857H117.943C119.04 6.94857 121.051 5.48572 123.794 5.48572C128.731 5.48572 131.474 9.14286 131.474 15.5429C131.474 21.9429 128.731 25.6 123.977 25.6C121.234 25.6 119.04 24.1371 118.126 21.76H117.943V31.2686H110.811V6.03429H110.629ZM124.16 15.7257C124.16 12.9829 122.88 11.3371 121.051 11.3371C119.223 11.3371 117.943 12.9829 117.943 15.7257C117.943 18.4686 119.223 20.1143 121.051 20.1143C122.88 19.9314 124.16 18.2857 124.16 15.7257Z" fill="#F23030"/>
<path d="M133.669 6.03429H140.8V9.50857H140.983C141.897 6.94857 144.091 5.48572 146.834 5.48572C151.771 5.48572 154.514 9.14286 154.514 15.5429C154.514 21.9429 151.771 25.6 147.017 25.6C144.274 25.6 142.08 24.1371 141.166 21.76H140.8V31.2686H133.669V6.03429ZM147.017 15.7257C147.017 12.9829 145.737 11.3371 143.909 11.3371C142.08 11.3371 140.8 12.9829 140.8 15.7257C140.8 18.4686 142.08 20.1143 143.909 20.1143C145.92 19.9314 147.017 18.2857 147.017 15.7257Z" fill="#F23030"/>
<path d="M31.6345 4.25807L23.7473 12.1453L39.3924 27.7904L47.2796 19.9032L31.6345 4.25807Z" fill="#F23030"/>
<path d="M51.5657 32L47.5429 20.2972L39.8629 28.16L51.5657 32Z" fill="#F23030"/>
</g>
<defs>
<clipPath id="clip0_19_28">
<rect width="154.331" height="32" fill="white"/>
</clipPath>
</defs>
</svg>
